<?xml version="1.0" encoding="UTF-8" standalone="no"?>
<!-- Created with Inkscape (http://www.inkscape.org/) -->

<svg
   version="1.1"
   id="svg1"
   width="2029.9991"
   height="379.30707"
   viewBox="0 0 2029.9991 379.30707"
   sodipodi:docname="majstero_logo_2048.png"
   xmlns:inkscape="http://www.inkscape.org/namespaces/inkscape"
   xmlns:sodipodi="http://sodipodi.sourceforge.net/DTD/sodipodi-0.dtd"
   xmlns="http://www.w3.org/2000/svg"
   xmlns:svg="http://www.w3.org/2000/svg">
  <defs
     id="defs1" />
  <sodipodi:namedview
     id="namedview1"
     pagecolor="#ffffff"
     bordercolor="#000000"
     borderopacity="0.25"
     inkscape:showpageshadow="2"
     inkscape:pageopacity="0.0"
     inkscape:pagecheckerboard="0"
     inkscape:deskcolor="#d1d1d1" />
  <g
     inkscape:groupmode="layer"
     inkscape:label="Image"
     id="g1"
     transform="translate(-12.656175,-830.50079)">
    <path
       style="fill:#000000"
       d="m 990.67863,1208.9443 c -9.05542,-1.0525 -20.30778,-4.5355 -21.07003,-6.5219 -1.12086,-2.9209 -0.60871,-7.844 1.96848,-18.9224 1.40743,-6.05 2.86585,-15.2728 3.24094,-20.4952 l 0.68198,-9.4952 11.5,-0.109 c 12.59595,-0.1193 20.1829,-1.8825 24.4607,-5.6845 1.8762,-1.6675 2.7394,-3.8252 3.487,-8.7161 0.5921,-3.873 1.0545,-42.065 1.1442,-94.5 0.083,-48.4 0.3791,-95.27102 0.6585,-104.15782 l 0.508,-16.15782 32.6208,-0.38799 c 26.1698,-0.31127 32.9174,-0.12469 34.1208,0.94347 1.3103,1.16311 1.5253,13.11784 1.7003,94.54586 0.24,111.6684 -0.4134,126.226 -6.5485,145.8962 -2.8947,9.2808 -10.5693,22.109 -16.3204,27.2798 -14.7771,13.2859 -43.4002,19.8245 -72.15277,16.4826 z m 33.44037,-3.4089 c 15.4441,-2.6988 30.4468,-9.2592 37.82,-16.5379 4.8494,-4.7872 10.5876,-14.4435 13.9953,-23.5514 5.2,-13.8983 5.3305,-16.5795 6.031,-123.9461 0.3588,-55 0.4456,-103.53936 0.1928,-107.86526 l -0.4597,-7.86525 -4.4888,0.61525 C 1074.7408,926.72314 1060.8587,927 1046.3604,927 H 1020 l -0.051,91.75 c -0.054,97.6434 -0.6563,121.348 -3.2374,127.4458 -2.898,6.8468 -17.86927,11.7058 -32.4616,10.5357 l -6.25,-0.5012 v 6.3377 c 0,3.4857 -1.37957,12.6721 -3.06571,20.4142 -1.68614,7.742 -2.92364,15.0592 -2.75,16.2602 0.85294,5.8999 32.34641,9.716 51.93471,6.293 z m -919.83302,-37.4873 c -2.3177,-0.3702 -5.151939,-1.5218 -6.298294,-2.5592 -3.093011,-2.7992 -11.130029,-16.3968 -20.487436,-34.6623 -2.443866,-4.7704 -4.906186,-8.9594 -5.471821,-9.309 C 71.462793,1121.168 71,1119.8127 71,1118.5058 c 0,-3.2288 4.139867,-6.0731 56.5,-38.8177 21.68069,-13.5585 35.5,-23.0645 35.5,-24.4195 0,-0.8254 -1.50879,-3.5859 -3.35287,-6.1346 -1.84407,-2.5487 -5.07583,-7.784 -7.18169,-11.634 -6.05753,-11.0746 -11.37773,-18.5 -13.25502,-18.5 -0.94329,0 -9.13902,4.3405 -18.21274,9.6456 -46.368239,27.1097 -74.736527,41.9365 -78.75654,41.1623 -1.05794,-0.2037 -4.218399,-5.0333 -8.063123,-12.3215 -3.477754,-6.5925 -9.742887,-17.767 -13.922516,-24.8321 l -7.599326,-12.8458 3.752662,-7.584 c 3.144251,-6.3544 8.349548,-15.64277 20.580782,-36.7245 0.9573,-1.65 8.384735,-14.25 16.505412,-28 8.120677,-13.75 15.538354,-26.35 16.483725,-28 0.945372,-1.65 3.069693,-5.25 4.720714,-8 1.65102,-2.75 6.308728,-10.625 10.350461,-17.5 7.088144,-12.05696 12.278495,-19.69795 14.42423,-21.23469 0.564209,-0.40408 39.156959,-0.74158 85.761649,-0.75 L 269.97162,872 l 2.38009,3.75 c 1.30905,2.0625 5.21488,8.925 8.67961,15.25 5.86125,10.69992 11.82513,20.99942 28.9523,50 3.73542,6.325 12.76543,21.85 20.06669,34.5 7.30125,12.65 15.67681,26.8934 18.61235,31.6521 3.40866,5.5256 5.33734,9.7603 5.33734,11.7188 0,1.9157 -1.63556,5.6119 -4.35766,9.8479 -2.39671,3.7297 -5.82723,9.4812 -7.62337,12.7812 -4.4464,8.1693 -20.1636,35.9767 -26.56512,47 -2.8746,4.95 -11.19199,19.35 -18.48311,32 -19.37553,33.6163 -26.89599,45.5227 -29.32951,46.4344 -2.6437,0.9904 -157.51561,2.0463 -163.35525,1.1137 z m 161.97139,-3.4079 c 2.77635,-1.3584 16.2325,-23.9054 56.48167,-94.6402 18.81518,-33.0662 24.96585,-43.7731 27.41027,-47.7147 1.74024,-2.8062 1.82566,-3.5362 0.67215,-5.7433 -1.27421,-2.4382 -29.59239,-50.98379 -42.31599,-72.542 -9.96333,-16.88136 -24.84575,-42.73499 -30.50898,-53 -2.88265,-5.225 -6.31751,-11.1875 -7.63302,-13.25 L 267.97162,874 h -82.79468 c -64.77004,0 -83.12084,0.27213 -84.29287,1.25 -2.556862,2.13329 -6.238012,7.69769 -15.381131,23.25 -4.850129,8.25 -14.536651,24.675 -21.525605,36.5 -24.727896,41.8385 -37.324456,63.62395 -42.795623,74.014 l -5.536436,10.514 7.263765,12.3178 c 3.995071,6.7747 9.980779,17.4907 13.301574,23.8132 5.497932,10.4676 6.246803,11.443 8.375117,10.9088 3.060477,-0.7681 18.177773,-7.99 26.414269,-12.6188 3.575,-2.009 8.525,-4.7781 11,-6.1535 8.16016,-4.5346 38.43098,-22.0475 42.014,-24.3068 6.05768,-3.8198 13.83872,-7.4887 15.88191,-7.4887 2.172,0 5.17479,4.042 14.11508,19 3.12294,5.225 7.14085,11.8232 8.92868,14.6626 2.06051,3.2725 3.03076,5.8552 2.65013,7.0545 -0.61792,1.9468 -15.61648,12.2329 -37.5898,25.7791 -6.875,4.2383 -14.075,8.7173 -16,9.9532 -1.925,1.2359 -5.975,3.8202 -9,5.7429 -12.19408,7.7506 -23.678684,15.3134 -26.778147,17.6338 -2.903388,2.1736 -3.11415,2.6383 -1.843607,4.0641 0.788997,0.8854 2.978698,4.7598 4.866002,8.6098 5.583889,11.3908 14.689375,27.3367 18.4562,32.3211 1.380401,1.8266 3.475012,3.7186 4.654682,4.2045 2.75608,1.1351 161.55771,0.7617 163.90224,-0.3854 z m -38.88363,-68.9256 c -5.90153,-3.3711 -18.44124,-25.2158 -23.80231,-41.4646 -0.95269,-2.8875 -2.00188,-5.25 -2.33154,-5.25 -0.32965,0 -5.48793,1.1689 -11.46284,2.5976 -5.97491,1.4286 -11.92185,2.3319 -13.21543,2.0072 -1.29357,-0.3246 -3.55998,-2.056 -5.03646,-3.8475 C 166.47432,1043.6288 150,1014.7596 150,1012.0371 c 0,-1.6803 1.14458,-3.7467 3.10178,-5.6 4.37853,-4.1461 11.28215,-14.1605 13.24089,-19.20734 2.31731,-5.97072 2.07706,-11.47148 -0.74306,-17.013 -4.52969,-8.90084 -11.97259,-14.56813 -27.76731,-21.14302 -12.74432,-5.3051 -15.72847,-9.92485 -9.97291,-15.43902 3.56108,-3.41174 15.47128,-8.11133 24.57379,-9.69647 16.94549,-2.95093 39.58516,2.73986 56.1559,14.11555 13.74256,9.43416 24.04737,24.48066 47.21876,68.9462 4.15585,7.975 9.64411,17.875 12.19614,22 8.12075,13.1261 14.99602,25.9031 14.99602,27.8686 0,2.9052 -5.73118,7.8752 -22.2008,19.2523 -8.26377,5.7085 -18.13102,12.7416 -21.92722,15.6291 -7.33904,5.5823 -8.16665,5.8676 -11.49824,3.9646 z M 253.5,1078.0396 c 18.47546,-12.7049 25.22368,-17.9866 26.05878,-20.3958 0.73079,-2.1083 -1.23411,-6.0441 -12.55271,-25.1438 -4.23714,-7.15 -12.78894,-22.675 -19.00402,-34.5 -12.13092,-23.08067 -22.92428,-40.36253 -30.40182,-48.67809 -7.7168,-8.58163 -20.14082,-15.92609 -34.64636,-20.4812 -6.23936,-1.95932 -9.57205,-2.33715 -20.45387,-2.31888 -12.25785,0.0206 -13.49578,0.21016 -21.68451,3.32087 -10.02861,3.80965 -14.34267,7.30374 -12.73247,10.31243 0.56858,1.0624 7.03312,4.78233 14.36565,8.26651 14.80504,7.03488 20.60849,11.59272 24.97417,19.61393 2.1259,3.90597 2.80908,6.56976 2.89512,11.2884 0.0986,5.40919 -0.37972,7.08801 -3.85267,13.52099 -2.18091,4.03972 -6.37284,10.01024 -9.3154,13.26794 -2.94257,3.2576 -5.1188,6.5257 -4.83607,7.2625 0.28272,0.7368 3.53721,6.2412 7.23219,12.2321 3.69498,5.9909 7.85663,13.0474 9.24811,15.6812 3.10453,5.8762 8.76545,11.0971 11.06489,10.2048 4.36148,-1.6924 18.65204,-4.5728 21.33686,-4.3007 2.85262,0.2892 3.22329,0.8493 6.32678,9.5593 4.16404,11.6864 13.42771,28.4668 18.75333,33.9701 l 4.08588,4.2222 4.06907,-3.2949 c 2.23799,-1.8122 10.81907,-7.9367 19.06907,-13.6099 z m 589.97655,43.9725 c -15.73594,-2.3132 -29.83834,-9.2615 -40.5102,-19.9598 -14.93333,-14.9703 -19.77619,-32.091 -15.47681,-54.7143 3.34477,-17.6002 14.53237,-31.4571 30.51046,-37.7901 13.27017,-5.2598 22.40871,-6.7686 51.5,-8.5031 18.39965,-1.09695 27.38709,-2.41793 31.72983,-4.66365 6.95083,-3.59441 0.13828,-17.40461 -10.85063,-21.99607 -9.09633,-3.80069 -36.60679,-2.42451 -63.34908,3.16896 C 817.96884,979.44932 809.09761,981 807.31627,981 c -3.03906,0 -3.33659,-0.32376 -4.82469,-5.25 C 800.64658,969.6423 796,943.23322 796,938.85479 c 0,-6.1713 2.63088,-7.8358 18.5,-11.70462 21.24366,-5.17911 44.89948,-8.14053 65.07632,-8.14675 43.0769,-0.0133 70.82773,11.55019 83.1092,34.63074 8.38002,15.74855 10.31234,29.36014 10.31364,72.65104 7.2e-4,23.7316 0.2332,28.1398 1.59354,30.2159 0.87598,1.3369 5.12238,4.4667 9.43644,6.9551 7.41618,4.2776 10.97086,7.5588 10.97086,10.1268 0,0.6258 -1.13153,2.8053 -2.51451,4.8432 -1.38298,2.038 -4.58179,9.8633 -7.10847,17.3896 -5.60134,16.6849 -7.41995,20.3651 -11.61779,23.5102 -4.99315,3.7409 -6.77292,3.909 -17.91626,1.6919 -14.53276,-2.8916 -25.27255,-8.2816 -33.81953,-16.973 -3.58789,-3.6486 -7.25136,-7.7291 -8.14104,-9.0678 l -1.6176,-2.434 -7.96944,7.4785 c -12.45575,11.6883 -25.57493,18.4063 -42.13074,21.5739 -7.87261,1.5063 -10.82674,1.5721 -18.68807,0.4166 z M 869.5,1116.9405 c 13.98527,-4.3384 27.87464,-13.0021 36.85198,-22.9871 2.44945,-2.7244 5.1328,-4.9534 5.963,-4.9534 0.83021,0 3.58723,2.9117 6.12673,6.4705 6.89138,9.6574 19.33598,17.9768 31.58462,21.1148 21.55935,5.5232 24.01112,3.9055 31.95724,-21.0853 2.27342,-7.15 4.63707,-13.9 5.25254,-15 0.61548,-1.1 1.80803,-3.1908 2.65013,-4.6461 1.97231,-3.4087 0.93436,-4.7379 -7.29275,-9.3387 -3.35561,-1.8766 -7.67028,-5.0309 -9.58815,-7.0097 l -3.48704,-3.5977 0.30291,-24.3435 c 0.64638,-51.94582 -3.83978,-73.55096 -18.299,-88.12712 -8.72532,-8.79588 -25.21732,-16.36761 -42.61311,-19.56433 -10.90867,-2.00462 -49.12372,-1.73073 -63.9091,0.45804 -14.07985,2.08433 -36.31369,6.93768 -41.27069,9.00885 -5.05699,2.11295 -5.39262,4.52024 -2.79044,20.01419 3.12147,18.5859 4.91604,24.64607 7.29832,24.64607 1.0501,0 9.63243,-1.59072 19.07184,-3.53494 19.56455,-4.02967 39.17998,-5.94808 51.94902,-5.08067 17.32179,1.17668 27.74195,9.83842 27.74195,23.06044 0,3.63646 -0.45729,4.80869 -2.36298,6.05735 -4.06168,2.66132 -15.81878,4.46932 -39.02463,6.00132 -28.97324,1.9126 -39.14094,4.016 -51.83559,10.7229 -18.69041,9.8746 -28.82773,35.9606 -23.22034,59.752 7.38646,31.3397 46.37647,52.0647 78.94354,41.9621 z m -8.1883,-40.8312 c -7.55515,-3.5288 -12.92731,-13.3507 -12.0868,-22.0981 0.58194,-6.0563 3.63783,-10.339 8.87167,-12.4332 9.36634,-3.7476 43.54199,-7.9528 46.26524,-5.6927 1.98921,1.6509 3.12423,15.112 1.6507,19.5768 -1.59163,4.8227 -11.40743,13.4492 -20.62972,18.1302 -9.35413,4.7479 -17.47638,5.5972 -24.07109,2.517 z m 21.94916,-4.917 c 3.5253,-1.7355 9.39318,-5.8893 13.03973,-9.2307 7.42107,-6.8001 8.29204,-9.0392 6.98657,-17.9616 l -0.80473,-5.5 -4.07016,-0.2991 c -5.03591,-0.3702 -29.075,3.1353 -36.08722,5.2623 -9.63131,2.9215 -12.79697,10.4969 -8.41689,20.1418 5.21459,11.4825 15.85413,14.2327 29.3527,7.5873 z m 502.28054,49.7048 c -14.639,-1.7898 -30.824,-9.0845 -39.5773,-17.8378 -5.1545,-5.1545 -10.4917,-13.7339 -14.0708,-22.6184 -2.3847,-5.9196 -2.3942,-6.1005 -2.6403,-50.4409 -0.1359,-24.475 -0.2484,-45.9625 -0.25,-47.75 V 979 l -13.25,-0.0136 c -7.2875,-0.008 -14.2625,-0.285 -15.5,-0.61664 l -2.25,-0.60297 0.015,-26.13337 c 0.01,-14.37335 0.4133,-26.76188 0.8997,-27.53007 0.7465,-1.17898 2.9654,-1.21251 14.2347,-0.21513 l 13.3503,1.18157 3.3707,-3.78487 c 4.1992,-4.71507 11.5042,-14.50749 21.473,-28.78487 4.2243,-6.05 8.9481,-12.52023 10.4974,-14.37828 l 2.8168,-3.37829 15.921,-0.12171 15.9211,-0.12172 0.2675,24.75 0.2674,24.75 h 25.9236 c 19.3038,0 26.1158,0.31117 26.6766,1.2186 0.8476,1.37143 0.6104,49.27075 -0.258,52.10526 -0.5254,1.71492 -2.1064,1.80451 -26.4687,1.5 l -25.91,-0.32386 0.034,31.99995 c 0.037,34.885 0.7685,44.5034 3.6304,47.7039 4.9457,5.5312 17.3102,7.4755 34.9622,5.498 6.2709,-0.7026 7.2039,-0.5915 7.7865,0.9268 1.4257,3.7153 3.6593,28.3734 3.3819,37.3347 l -0.2929,9.4633 -3.401,2.2888 c -8.4911,5.7141 -38.7153,9.4853 -57.5576,7.1816 z m 28.4848,-2.9227 c 11.0212,-1.3339 21.586,-3.6945 25.9738,-5.8036 3.484,-1.6746 3.5015,-1.7165 3.8334,-9.1766 0.1833,-4.1218 -0.4453,-14.1264 -1.3969,-22.2325 l -1.7303,-14.7383 -4.1031,0.7326 c -2.2567,0.403 -9.0531,0.7245 -15.1031,0.7144 -9.7565,-0.016 -11.6404,-0.3158 -16.6653,-2.6502 -6.8768,-3.1948 -8.6971,-5.7721 -9.8531,-13.9505 -1.072,-7.5839 -1.5368,-73.64855 -0.5253,-74.65753 0.3927,-0.39169 12.2631,-0.71217 26.3788,-0.71217 H 1446.5 l 0.6085,-19 c 0.3346,-10.45 0.3852,-21.3625 0.1123,-24.25 l -0.4962,-5.25 h -24.7805 c -13.6293,0 -25.4923,-0.27314 -26.3623,-0.60699 -1.3826,-0.53054 -1.5818,-3.67964 -1.5818,-25.0044 V 876.9912 l -13.6343,0.19032 c -15.875,0.2216 -13.7732,-1.02296 -24.6825,14.61531 -10.4419,14.96814 -21.0555,29.2101 -24.625,33.04342 -2.8874,3.10088 -3.4489,3.30085 -7.8343,2.79041 -2.5981,-0.30241 -8.6614,-0.83342 -13.4739,-1.18002 l -8.75,-0.63018 v 24.48278 c 0,21.4026 0.199,24.55915 1.5818,25.08977 0.87,0.33385 7.6311,0.60699 15.0247,0.60699 13.3891,0 13.4468,0.01 14.3856,2.47928 0.5701,1.49951 0.7135,19.18414 0.3629,44.75002 -0.6488,47.3071 -0.3089,50.9992 5.8331,63.3564 11.8901,23.9218 40.3177,35.6878 75.8381,31.3887 z M 1171,1119.4216 c -13.6271,-1.7576 -47.1515,-8.9314 -50.973,-10.9076 -5.4446,-2.8156 -5.5475,-4.3429 -1.1655,-17.2949 2.1807,-6.4455 4.92,-16.2191 6.0873,-21.7191 1.1672,-5.5 2.3757,-10.832 2.6855,-11.849 0.6727,-2.2082 1.3401,-2.1208 17.3657,2.2728 35.4591,9.7216 61.0005,11.9661 72.7456,6.3926 4.3354,-2.0572 11.2544,-9.9792 11.2544,-12.8858 0,-4.7621 -3.4059,-6.6164 -17,-9.2557 -9.5067,-1.8457 -15.2462,-2.7964 -37.5,-6.2118 -9.8638,-1.5139 -29.4964,-8.2559 -35.7381,-12.2728 -15.2693,-9.8268 -25.0223,-29.23501 -23.3257,-46.4176 2.4645,-24.9605 20.5204,-45.38268 48.2462,-54.5691 23.017,-7.62626 58.8061,-7.32074 98.4229,0.8402 20.8852,4.30229 21.7709,5.0639 20.0194,17.21435 -1.6438,11.40268 -7.0919,32.6588 -9.3024,36.29373 -2.2484,3.69719 -1.2664,3.7603 -20.8223,-1.33812 -15.3274,-3.99601 -28.3088,-5.81 -41.4557,-5.79292 -16.3165,0.0212 -22.9688,2.24385 -26.9223,8.99532 l -1.8781,3.2071 2.7113,2.82994 c 3.1413,3.27881 9.8233,5.32965 23.0448,7.0729 12.6572,1.66885 43.1271,8.5468 51.0134,11.5152 14.9529,5.6282 20.8884,9.8373 27.1277,19.2373 8.639,13.0151 11.0151,28.0167 6.97,44.0045 -2.0583,8.135 -9.4707,21.3922 -15.41,27.561 -10.3844,10.7856 -28.4277,19.305 -48.2011,22.7589 -12.7511,2.2274 -41.9573,2.3878 -58,0.3186 z m 63,-4.2672 c 27.0458,-7.3078 40.2203,-16.3524 50.4783,-34.6544 7.3215,-13.0628 9.1472,-30.0143 4.5236,-42 -8.0795,-20.9441 -19.6799,-28.5403 -55.5019,-36.3436 -16.8036,-3.66042 -23.0702,-4.81202 -30.9643,-5.6903 C 1189.1789,994.98008 1179,989.70156 1179,984.26113 c 0,-3.27538 4.8894,-9.83157 9.1519,-12.27188 4.2457,-2.4306 4.8193,-2.48794 24.3481,-2.43358 21.0586,0.0586 26.1986,0.83735 48.9968,7.42314 3.8483,1.11165 7.1004,2.02119 7.227,2.02119 2.0926,0 8.2467,-21.3627 10.2266,-35.5 1.0987,-7.8455 1.0742,-8.04012 -1.2702,-10.07751 -1.7168,-1.4919 -6.871,-2.96636 -18.2854,-5.23084 -38.6212,-7.66198 -73.0863,-8.03002 -93.8501,-1.00218 -11.3539,3.84294 -13.5189,4.93491 -21.5447,10.86666 -9.0369,6.67903 -14.2442,12.35265 -18.3047,19.94387 -5.7744,10.79514 -6.9666,15.79882 -6.536,27.43061 0.3496,9.44459 0.6743,10.8481 4.1251,17.83029 4.5546,9.2156 10.2526,15.5569 18.1988,20.2534 6.5923,3.8963 24.1936,9.9331 32.0168,10.9808 17.5207,2.3466 46.3033,7.7217 51.1186,9.5463 7.9798,3.0237 9.7216,9.7231 4.3084,16.5711 -4.7187,5.9695 -7.8665,8.1781 -14.7823,10.3717 -13.2699,4.209 -33.3943,1.9567 -70.341,-7.8725 -6.4329,-1.7115 -12.1088,-3.1117 -12.6131,-3.1117 -0.5043,0 -1.688,3.9375 -2.6304,8.75 -0.9425,4.8125 -3.4791,14.1034 -5.6369,20.6464 -2.1578,6.543 -3.9233,12.4939 -3.9233,13.2243 0,0.7304 1.2632,1.9811 2.807,2.7795 4.9538,2.5617 41.547,9.8551 60.193,11.9971 1.925,0.2211 12.725,0.2629 24,0.093 16.7636,-0.2529 21.867,-0.6786 28,-2.3357 z m 307.5,5.1603 c -15.5891,-2.0039 -35.3638,-9.2204 -46.1875,-16.8555 -20.1833,-14.2375 -31.9696,-33.8549 -35.9586,-59.8502 -2.6174,-17.0573 -0.5843,-45.91315 4.2498,-60.31814 2.7472,-8.18618 11.4857,-24.90058 16.076,-30.7491 4.9973,-6.36706 15.554,-15.33636 24.3531,-20.69105 21.3782,-13.00979 68.2557,-16.86272 96.1344,-7.90143 12.5276,4.02687 21.1621,9.21092 29.9236,17.96571 8.7777,8.77113 13.5662,17.51428 17.0245,31.08501 2.7058,10.6176 2.8997,26.28768 0.5013,40.5 -2.7982,16.5809 -3.0946,17.308 -7.3943,18.1401 -2.0473,0.3961 -28.6307,0.7517 -59.0743,0.7901 l -55.352,0.07 0.4741,4.5 c 0.6568,6.2353 4.1061,14.793 7.7365,19.1943 4.0799,4.9463 14.984,10.2858 24.1736,11.8372 14.4772,2.4441 37.5643,0.052 59.3198,-6.1452 6.05,-1.7234 13.2472,-3.1904 15.9937,-3.2599 l 4.9938,-0.1264 1.1917,6 c 1.6389,8.2515 4.4103,38.1032 3.7075,39.9346 -0.8201,2.1373 -8.481,4.7183 -27.8867,9.3951 -23.7749,5.7299 -35.201,7.1983 -54.6283,7.0205 -9.0045,-0.082 -17.7217,-0.3234 -19.3717,-0.5355 z m 33.5,-2.3438 c 14.3341,-1.2614 24.1178,-3.0739 43.8526,-8.1239 17.4834,-4.474 22.1474,-6.1686 22.1474,-8.0473 0,-2.7007 -3.9552,-35.773 -4.5721,-38.2311 -0.8339,-3.3223 -1.7817,-3.2739 -16.0866,0.8215 -20.7654,5.945 -31.3898,7.6198 -48.1637,7.5925 -18.1375,-0.03 -30.768,-4.0074 -39.1852,-12.3413 -5.267,-5.2149 -10.2179,-17.7307 -9.7914,-24.7525 l 0.299,-4.9217 57.9285,-0.3449 c 57.1118,-0.34 57.9521,-0.374 59.5998,-2.4088 2.2776,-2.8127 5.1018,-21.9212 5.0582,-34.2238 -0.1142,-32.20557 -14.6007,-53.99173 -43.1506,-64.8939 -12.0021,-4.58317 -19.2961,-5.59938 -39.9359,-5.56389 -20.5315,0.0353 -28.6512,1.08282 -42.3113,5.45854 -10.7152,3.43239 -18.8109,8.08626 -28.6943,16.49525 -15.5593,13.2381 -26.3611,35.52946 -29.4991,60.8766 -1.8909,15.2735 -1.8895,25.0264 0.01,37.6424 3.3463,22.2797 13.2606,41.116 27.6501,52.5331 18.544,14.7134 30.8994,19.2357 62.3492,22.8207 6.0639,0.6912 11.2586,0.6017 22.5,-0.3875 z m -49.2002,-124.51098 c -2.2262,-4.88592 1.9309,-16.12981 8.5981,-23.25608 5.8622,-6.26566 11.1349,-8.55174 20.8077,-9.02147 13.1393,-0.63807 17.2419,0.26719 22.2872,4.91776 5.0947,4.69612 8.0193,11.12236 8.9327,19.62755 1.1729,10.92263 3.1027,10.27232 -30.4821,10.27232 h -28.9863 z m 57.1358,-1.88235 c 0.8979,-1.08188 0.9098,-2.93736 0.05,-7.75 -1.3076,-7.31572 -4.7503,-13.81205 -8.8768,-16.7504 -3.6259,-2.58187 -14.0269,-4.10661 -20.6084,-3.02108 -2.75,0.45358 -5.4853,0.85151 -6.0786,0.8843 -2.3641,0.13067 -10.531,6.4437 -13.4302,10.38162 -3.2851,4.46215 -6.5263,13.84128 -5.6091,16.23141 0.8186,2.13317 52.7841,2.15617 54.5535,0.0242 z M 1908.5,1119.409 c -22.3084,-3.4636 -41.9512,-13.4731 -57.5,-29.3006 -12.5127,-12.737 -20.9918,-28.0129 -25.593,-46.1084 -2.8553,-11.2296 -2.6102,-36.2849 0.4696,-48 2.2135,-8.41996 11.6428,-28.53428 17.0835,-36.44207 7.2678,-10.56338 24.8453,-24.41413 39.3798,-31.03059 19.2651,-8.76995 46.3876,-11.42094 75.6189,-7.3911 20.7931,2.86655 41.8692,13.42092 56.29,28.18858 22.8793,23.42968 32.7074,56.85968 26.6575,90.67518 -3.4666,19.3765 -4.8301,22.7107 -15.238,37.2639 -13.2447,18.5197 -27.9834,29.3109 -49.8856,36.5247 -6.7555,2.225 -16.5245,4.7578 -21.7089,5.6284 -11.5268,1.9358 -33.0786,1.932 -45.5738,-0.01 z m 48.4748,-3.4399 c 19.2764,-4.0682 35.8357,-11.2897 48.3898,-21.1028 8.6684,-6.7757 21.3219,-22.6559 26.5866,-33.3663 6.9041,-14.0455 9.3771,-44.2119 5.1832,-63.22525 -3.8629,-17.51253 -11.665,-32.26257 -24.075,-45.51398 -16.9019,-18.04801 -37.7836,-27.32435 -67.3094,-29.90111 -32.5372,-2.83958 -58.9799,3.43155 -80.141,19.00616 -14.0767,10.36043 -20.7791,18.69696 -29.8553,37.13418 -7.3746,14.98063 -9.2081,23.4202 -9.2329,42.5 -0.019,14.6707 0.2124,16.7797 2.7857,25.3846 11.7316,39.229 42.8964,64.9931 85.1935,70.4301 1.65,0.2121 9.75,0.446 18,0.5198 11.5753,0.1035 17.1632,-0.3224 24.4748,-1.8654 z m -33.4863,-48.9858 c -13.0561,-2.5958 -22.6966,-10.5445 -29.5408,-24.3567 -3.9335,-7.9381 -4.3778,-9.5901 -4.7666,-17.7222 -0.7806,-16.327 3.4698,-29.09283 13.1777,-39.57851 6.6705,-7.20492 12.2454,-9.91168 23.547,-11.43265 9.3217,-1.25449 19.597,-0.0231 27.2387,3.26427 12.1246,5.21584 23.7765,25.23539 23.8407,40.96149 0.026,6.3484 -2.9975,21.2104 -5.3668,26.381 -7.0823,15.4557 -29.8896,26.1099 -48.1299,22.4833 z m 17.0169,-3.5267 c 13.7662,-3.5857 24.3419,-11.3357 28.5979,-20.9571 1.0587,-2.3936 2.6707,-8.8947 3.5821,-14.447 1.5464,-9.4208 1.5451,-10.611 -0.019,-17.8192 -1.9934,-9.1859 -5.6609,-16.80956 -11.01,-22.88641 -9.4262,-10.70878 -26.5243,-13.76548 -46.1318,-8.2472 -6.3055,1.77459 -15.2611,11.60774 -19.5066,21.41791 -3.2941,7.6119 -3.4559,8.5394 -3.4862,19.9824 -0.031,11.7753 0.037,12.1441 3.6288,19.6972 4.4665,9.3918 11.3086,16.9333 18.4116,20.2936 9.8106,4.6412 16.5445,5.4113 25.9333,2.9658 z m -1499.03836,54.4901 c -0.9087,-1.4703 -0.60066,-185.53487 0.31872,-190.4467 l 0.74871,-4 24.31004,0.23874 c 13.37052,0.13131 24.71927,0.49166 25.21943,0.80078 0.50017,0.30912 2.27596,4.92668 3.94622,10.26126 1.67025,5.33457 3.89798,10.82082 4.95051,12.19166 l 1.91368,2.49245 8.81283,-8.60703 C 528.95087,924.01731 541.02791,918.97635 564,919.04244 c 16.46146,0.0474 31.10483,3.66702 40.5,10.01108 5.07203,3.42487 12.13477,10.96724 16.45099,17.56818 l 3.34897,5.12169 4.90791,-5.89745 c 11.41027,-13.71082 26.33611,-22.89025 41.54122,-25.54795 10.52736,-1.84007 29.6803,-1.25617 38.71639,1.18032 23.15807,6.24432 37.90578,22.82442 42.26973,47.52169 1.94652,11.01611 3.12641,144.5215 1.30729,147.9206 -1.09242,2.0412 -1.71745,2.0794 -34.01867,2.0794 -18.09819,0 -33.14161,-0.3816 -33.42983,-0.8479 -0.28822,-0.4663 -0.79583,-28.9288 -1.12803,-63.25 -0.66667,-68.87836 -0.60043,-68.17894 -6.98868,-73.7879 -4.32254,-3.79524 -10.63146,-4.8265 -19.87233,-3.24835 -7.72912,1.31997 -18.80308,6.64396 -23.05866,11.08582 l -2.72927,2.84874 -0.81715,62.20839 c -0.45399,34.5619 -1.21946,62.6108 -1.72242,63.1137 -0.5146,0.5146 -15.11879,0.7914 -33.84136,0.6414 L 562.5,1117.5 561.88968,1055 c -0.56396,-57.75337 -0.75382,-62.91474 -2.5,-67.96096 -2.54487,-7.35438 -5.81349,-9.26126 -15.87492,-9.26126 -13.01623,0 -24.47752,3.92902 -31.60158,10.83328 l -3.58681,3.47614 -0.67619,62.1196 c -0.46916,43.1011 -1.01585,62.5289 -1.78563,63.4564 -1.42459,1.7165 -63.34338,1.9891 -64.39751,0.2835 z m 61.91321,-5.237 c 0.32584,-1.2153 0.59859,-13.4987 0.6061,-27.2963 0.008,-13.7976 0.30133,-40.7976 0.65294,-60 l 0.63929,-34.9134 4.49999,-4.36662 C 517.44556,978.6936 528.9816,974.8 543.35736,974.8 c 12.10771,0 15.87494,2.19172 19.25105,11.2 1.48931,3.97385 1.75696,11.7492 2.28905,66.5 l 0.60254,62 30.64102,0.2643 30.64101,0.2643 0.58183,-18.2643 c 0.32,-10.0454 0.80757,-37.96 1.08349,-62.0324 0.30469,-26.5821 0.89878,-44.51013 1.513,-45.65782 1.43835,-2.68757 12.0423,-9.54434 18.80411,-12.15918 4.37453,-1.69166 7.98984,-2.24134 15.23554,-2.31644 11.44904,-0.11866 14.90031,1.45254 19.48728,8.87164 2.72779,4.41201 3.06906,5.92062 3.60846,15.95138 0.32765,6.09322 0.67288,34.44872 0.76716,63.01232 0.0943,28.5636 0.35999,52.1224 0.59045,52.3529 0.23046,0.2304 13.9957,0.6592 30.58942,0.9527 25.0587,0.4433 30.31918,0.2988 31.0485,-0.8528 0.48296,-0.7627 0.885,-27.9768 0.89342,-60.476 0.0212,-81.64285 -1.22455,-93.38708 -11.55658,-108.95294 -10.09966,-15.21579 -28.24142,-23.33348 -52.3462,-23.42277 -22.05352,-0.0817 -34.6346,5.16052 -50.91918,21.21672 -3.4855,3.43661 -7.08021,7.50314 -7.98825,9.03672 -2.54079,4.29112 -5.01911,3.1456 -10.35948,-4.78833 -11.67977,-17.35208 -24.76301,-24.07744 -49.06466,-25.22141 -25.11613,-1.18231 -38.29123,3.89216 -55.46695,21.36341 -11.93736,12.14277 -14.32683,11.40079 -19.77969,-6.142 -1.36766,-4.4 -2.88076,-8.60491 -3.36245,-9.34425 -0.68434,-1.05041 -5.69428,-1.37831 -22.9185,-1.5 L 445.18004,926.5 444.60102,930 c -0.76558,4.62777 -0.74627,179.8563 0.0201,182.7151 0.55383,2.0658 1.2435,2.2343 10.23634,2.5 5.30338,0.1567 18.25726,0.1543 28.7864,-0.01 18.78919,-0.2849 19.15488,-0.3312 19.73635,-2.5 z m 1178.59495,3.7252 c -1.1074,-2.9128 -1.2505,-181.20355 -0.1511,-188.29345 l 0.6759,-4.35856 24.9644,-0.10057 24.9643,-0.10058 2.2769,6.36038 c 3.1211,8.71865 8.3189,19.83333 9.8816,21.13027 0.9924,0.82358 2.884,-1.0828 8.1869,-8.25067 8.2148,-11.10382 13.6574,-16.21427 20.7037,-19.44021 4.7849,-2.19056 6.6786,-2.40926 22.8182,-2.63516 13.4316,-0.188 17.9087,0.0635 18.9022,1.06163 3.7154,3.73303 -1.9257,64.90547 -6.1962,67.19095 -1.0096,0.54029 -4.0219,0.26893 -7.9228,-0.71372 -5.7707,-1.45364 -7.1373,-1.44919 -16.4366,0.0535 -7.4879,1.21 -12.0818,2.61494 -17.5515,5.36779 -8.8062,4.43205 -16.8199,12.0506 -17.5182,16.6543 -0.2619,1.7266 -0.7541,26.3057 -1.0938,54.6203 -0.4042,33.6854 -0.9818,51.9197 -1.6709,52.75 -0.8099,0.9759 -8.3037,1.2689 -32.4554,1.2689 h -31.4023 z m 62.4913,-1.6849 c 0.2221,-0.6875 0.6759,-24.6198 1.0086,-53.183 0.6752,-57.9839 0.344,-55.3802 7.9331,-62.37562 8.4941,-7.82957 15.8591,-11.12395 30.6907,-13.72803 8.0144,-1.40715 10.3975,-1.4655 16.1564,-0.39559 3.7154,0.69027 6.9893,1.02094 7.2754,0.73482 2.8036,-2.80353 7.4977,-59.08099 5.1262,-61.45764 -0.4637,-0.46472 -8.2222,-0.74203 -17.2412,-0.61626 -15.2034,0.21202 -16.7526,0.40833 -21.2643,2.69461 -7.2655,3.68168 -10.5349,6.8401 -18.2137,17.5954 -8.296,11.61972 -8.7283,12.01963 -11.7536,10.874 -1.6455,-0.62314 -3.7065,-3.84599 -7.1206,-11.13483 -2.6426,-5.64182 -5.3107,-11.83286 -5.929,-13.75786 l -1.1242,-3.5 h -22.4026 -22.4026 l -0.6222,4.5 c -0.6274,4.53866 -0.4847,133.3756 0.1841,166.1934 l 0.3606,17.6935 3.6862,0.3884 c 2.0274,0.2137 15.2878,0.4641 29.4676,0.5566 19.8633,0.1295 25.8741,-0.1188 26.1851,-1.0819 z M 1038.286,895.6045 C 1023.6521,890.83917 1012,876.64212 1012,863.57732 c 0,-8.35908 2.8204,-14.49224 9.952,-21.64139 3.6014,-3.61024 8.798,-7.66024 11.548,-9 4.5159,-2.20008 6.2587,-2.43586 18,-2.43516 12.316,7.3e-4 13.2808,0.14863 18.3375,2.81119 7.2037,3.79304 13.1457,9.96565 16.9802,17.63915 4.4393,8.88385 4.4826,17.1274 0.1355,25.82669 -3.7571,7.51851 -8.1382,11.45882 -17.8896,16.08978 -6.7781,3.21888 -8.5019,3.60758 -17.052,3.84501 -6.0417,0.16777 -11.0489,-0.23646 -13.7256,-1.10809 z m 24.9136,-3.50115 c 19.9076,-6.84922 28.6836,-22.726 21.3925,-38.70143 -3.2492,-7.11938 -9.327,-13.62921 -16.0921,-17.23611 -4.6494,-2.4789 -5.8764,-2.66581 -17.5,-2.66581 -11.9938,0 -12.6999,0.1175 -17.4369,2.90169 -11.3978,6.69913 -17.6218,15.42356 -18.377,25.75987 -0.8969,12.27459 9.7532,26.18312 23.3139,30.44694 6.1914,1.94673 18.2924,1.69924 24.6996,-0.50515 z"
       id="path4122" />
    <path
       style="fill:#fc6c09;fill-opacity:1;stroke:#ffffff;stroke-width:0.43437"
       d="m 100.10038,1162.1308 c -2.875752,-2.8758 -12.153356,-18.4028 -20.519967,-34.3423 l -5.243364,-9.9894 15.697918,-10.2902 c 8.633854,-5.6597 26.299933,-16.9504 39.257963,-25.0905 28.6583,-18.0028 36.77665,-23.8979 36.77665,-26.7051 0,-2.233 -17.08748,-31.1332 -22.05232,-37.2973 -2.87161,-3.5653 -2.96335,-3.5902 -7.37946,-2.0081 -2.45943,0.8811 -16.88382,8.8025 -32.05419,17.6031 -31.472997,18.258 -59.453377,32.6189 -61.313689,31.4692 -0.696062,-0.4302 -3.171764,-4.2503 -5.501558,-8.4892 -2.329793,-4.2389 -8.031278,-14.3592 -12.669965,-22.4895 -4.638687,-8.1304 -8.433976,-15.0413 -8.433976,-15.3575 0,-1.2414 18.778738,-34.1102 45.157901,-79.04074 30.083878,-51.24063 36.235903,-61.25037 39.096347,-63.61225 1.53463,-1.26715 16.99197,-1.58322 84.30623,-1.7239 l 82.42706,-0.17227 8.59324,14.94051 c 4.72629,8.21729 22.27988,38.47183 39.00798,67.23233 16.72811,28.76049 31.66892,54.45962 33.20179,57.10922 l 2.78704,4.8174 -30.12454,52.6461 c -35.53749,62.1059 -51.01183,88.2464 -54.0193,91.2539 -2.11417,2.1142 -5.04588,2.1913 -83.26713,2.1913 h -81.07581 z m 154.25746,-80.5802 c 11.88672,-8.4855 23.32346,-17.0266 25.41496,-18.9804 5.57691,-5.2096 5.93049,-4.217 -13.94453,-39.1448 -4.13637,-7.2692 -12.28415,-22.0086 -18.10617,-32.75424 -20.63568,-38.08716 -30.24257,-49.65663 -48.57853,-58.50258 -23.62828,-11.39917 -43.99894,-12.48827 -64.18046,-3.43134 -7.29953,3.27583 -10.26726,6.24497 -10.26726,10.27213 0,3.6137 3.97482,6.63032 16.25657,12.33763 17.12354,7.9573 26.17578,17.79641 26.2412,28.52223 0.0308,5.05715 -4.05984,12.98533 -11.56931,22.42257 -3.10447,3.9015 -5.64451,8.2707 -5.64451,9.7094 0,5.4488 19.79924,38.6774 24.56599,41.2285 2.63028,1.4077 10.13051,0.5011 24.38262,-2.9471 2.06948,-0.5008 2.7648,0.4268 5.00774,6.6802 3.91328,10.9104 13.7863,29.2758 18.80094,34.9727 2.94796,3.3491 5.37461,5.0432 7.22385,5.0432 1.73513,0 10.93029,-5.8148 24.3969,-15.4281 z"
       id="path4123" />
    <path
       style="fill:#ffffff;fill-opacity:1;stroke:#ffffff;stroke-width:0.43437"
       d="m 695.59596,1114.5289 -6.60831,-0.4259 -0.10291,-20.9168 c -0.0566,-11.5043 -0.44449,-39.8784 -0.86196,-63.0536 l -0.75903,-42.13674 -3.47711,-4.98334 c -5.32922,-7.63775 -9.40587,-9.25366 -21.89385,-8.67831 -8.84436,0.40747 -11.55318,1.03756 -17.8137,4.14354 -4.06078,2.01465 -9.15138,5.12312 -11.31245,6.90773 l -3.92922,3.24473 -0.99714,59.05859 c -0.54843,32.4823 -1.26029,60.7395 -1.5819,62.7938 l -0.58476,3.7351 h -29.82895 -29.82896 l -0.0948,-26.7205 c -0.0522,-14.6963 -0.46766,-43.27 -0.92336,-63.4972 -0.77322,-34.32141 -0.99091,-37.08762 -3.2608,-41.43458 -1.33775,-2.56186 -3.89598,-5.3264 -5.68495,-6.14343 -12.21728,-5.5797 -38.20832,-0.0711 -48.02889,10.1794 l -3.3806,3.52858 -0.80648,61.01273 c -0.45194,34.1906 -1.26916,61.4754 -1.85894,62.0652 -0.59611,0.5961 -12.97808,0.9186 -28.55619,0.7438 l -27.50373,-0.3086 -0.72173,-16.0898 c -0.99624,-22.2096 -1.15999,-122.86764 -0.24258,-149.11783 l 0.7531,-21.54883 16.77003,0.0852 c 9.22351,0.0469 19.08752,0.43473 21.92002,0.86196 l 5.15,0.77676 3.60117,10.0381 c 1.98064,5.52095 4.25172,10.82196 5.04684,11.78002 2.97552,3.58529 6.71329,1.97468 16.36537,-7.05184 17.75311,-16.60251 27.48258,-20.58164 49.73264,-20.33948 27.3428,0.29759 37.76122,5.51643 55.51719,27.80994 2.09001,2.62411 4.32837,4.77112 4.97411,4.77112 0.64575,0 5.04874,-4.11878 9.78443,-9.15284 16.77679,-17.83385 29.57516,-23.60402 52.12157,-23.4991 15.13308,0.0704 24.39144,2.08457 34.60488,7.52828 8.09009,4.31197 16.91847,13.35544 21.10714,21.62136 6.5239,12.8743 6.90986,18.10399 6.91685,93.71998 l 0.006,68.9563 -23.56005,0.081 c -12.95802,0.045 -26.53378,-0.1104 -30.16835,-0.3447 z"
       id="path4124" />
    <path
       style="fill:#ffffff;fill-opacity:1;stroke:#ffffff;stroke-width:0.43437"
       d="m 837.67894,1117.1911 c -18.33637,-4.4497 -35.98786,-18.1773 -43.21229,-33.6064 -6.25183,-13.3519 -5.88778,-32.6404 0.88629,-46.9596 4.07825,-8.6207 12.27528,-17.3177 19.99501,-21.2146 12.35987,-6.2393 21.6746,-8.0546 56.29735,-10.9718 23.53458,-1.983 30.66972,-3.2471 33.67396,-5.96587 4.55387,-4.12119 0.99458,-18.32549 -5.80525,-23.1674 -11.83354,-8.42622 -32.00581,-8.78522 -72.81904,-1.29593 -10.26476,1.8836 -19.0323,3.04142 -19.48341,2.57293 -2.37129,-2.46263 -7.17101,-29.16293 -6.55613,-36.47101 0.47587,-5.65591 1.64614,-6.2921 18.77442,-10.20636 24.46441,-5.59075 36.43319,-6.72803 64.76381,-6.15389 29.46674,0.59717 33.41084,1.33804 50.1936,9.42852 28.31202,13.6484 34.98689,32.53264 35.01257,99.05591 l 0.01,25.4747 4.30977,3.3944 c 2.37037,1.8669 7.02491,5.0577 10.34343,7.0908 6.40198,3.922 6.98688,5.0747 4.42846,8.7273 -0.88286,1.2605 -4.03488,9.2625 -7.00447,17.7821 -8.24609,23.6578 -10.98944,25.983 -26.48534,22.4483 -13.55693,-3.0924 -21.81143,-7.8477 -32.31089,-18.6138 -5.15226,-5.2831 -9.9908,-9.6056 -10.75231,-9.6056 -0.76152,0 -5.20044,3.5636 -9.86428,7.9191 -9.75258,9.1078 -24.82648,17.5098 -36.24208,20.2008 -8.71506,2.0544 -20.02591,2.1096 -28.153,0.1374 z m 47.32343,-42.9485 c 9.46368,-4.7888 18.24671,-12.0689 20.63662,-17.1053 1.56456,-3.297 1.86393,-5.972 1.3519,-12.0795 -0.36172,-4.3147 -0.97681,-8.3611 -1.36686,-8.9923 -1.66142,-2.6882 -33.87772,0.3918 -45.84524,4.383 -10.32412,3.4431 -13.97181,13.7668 -8.84954,25.0459 5.97613,13.1594 18.83261,16.4603 34.07312,8.7482 z"
       id="path4125" />
    <path
       style="fill:#ffffff;fill-opacity:1;stroke:#ffffff;stroke-width:0.43437"
       d="m 1158.4646,1113.1696 c -20.3198,-3.8153 -36.2287,-7.713 -37.7694,-9.2537 -0.7007,-0.7008 0.4218,-6.2281 3.0918,-15.2241 2.3056,-7.7681 4.8175,-16.8943 5.582,-20.2803 0.7644,-3.3859 2.0431,-6.4069 2.8414,-6.7133 0.7983,-0.3063 7.5492,1.0114 15.0021,2.9282 48.6047,12.5009 70.5336,11.6743 81.6365,-3.0771 4.7144,-6.2636 4.8878,-10.7285 0.5831,-15.0136 -3.3511,-3.3358 -14.3267,-5.9635 -48.3678,-11.58 -32.9223,-5.4318 -48.5144,-14.3719 -57.2884,-32.8475 -3.9914,-8.40466 -4.0628,-8.808 -3.6034,-20.34927 0.4123,-10.35754 0.9119,-12.69315 4.1513,-19.40646 9.4104,-19.50224 29.7479,-33.39202 55.4024,-37.8379 18.122,-3.14052 52.7447,-1.14799 80.9716,4.65992 14.9568,3.0775 17.1975,4.22429 17.6595,9.03835 0.4557,4.74816 -2.4387,19.34213 -6.1936,31.2284 l -2.8238,8.93901 -14.6385,-4.10601 -14.6385,-4.10601 -25.6452,-0.092 -25.6452,-0.092 -5.0978,5.39213 c -5.4017,5.71355 -6.277,9.07735 -3.4225,13.15268 2.4336,3.47443 11.3494,6.90477 21.8847,8.4201 5.0568,0.72733 16.645,2.88652 25.7515,4.79816 38.3907,8.0591 49.7014,14.4277 58.4897,32.9333 3.7559,7.909 4.1526,9.6764 4.1673,18.5677 0.021,12.5428 -3.1553,22.2317 -10.9049,33.2667 -8.6992,12.3873 -19.4994,19.6085 -39.003,26.078 -9.4912,3.1483 -10.5526,3.2485 -37.3513,3.5269 -26.0615,0.2707 -28.5331,0.108 -44.8216,-2.9504 z"
       id="path4126" />
    <path
       style="fill:#ffffff;fill-opacity:1;stroke:#ffffff;stroke-width:0.43437"
       d="m 989.1169,1205.0484 c -9.21332,-1.4456 -16.25944,-4.4368 -16.25944,-6.9025 0,-1.1423 1.05058,-7.1763 2.33461,-13.4088 1.28404,-6.2326 2.64635,-15.0045 3.02736,-19.4931 l 0.69275,-8.1612 9.3273,0.028 c 9.7498,0.029 19.93952,-2.3051 24.67652,-5.6527 6.5437,-4.6244 6.3229,-0.9886 7.0582,-116.2059 0.372,-58.28551 0.9128,-106.18855 1.2018,-106.45121 0.289,-0.26267 13.8041,-0.84634 30.0336,-1.29705 l 29.5081,-0.81948 0.8293,5.53012 c 1.2806,8.53989 -1.4549,214.75922 -2.9479,222.22782 -1.9912,9.961 -11.8223,28.8247 -17.981,34.5016 -5.7263,5.2783 -17.7845,11.3251 -28.5732,14.3285 -7.939,2.2101 -33.43806,3.2651 -42.928,1.7761 z"
       id="path4127" />
    <path
       style="fill:#ffffff;fill-opacity:1;stroke:#ffffff;stroke-width:0.43437"
       d="m 1040.1924,892.34481 c -6.2169,-1.55806 -11.3029,-4.91952 -16.6718,-11.01887 -11.1016,-12.61219 -10.0401,-26.2722 2.9888,-38.45923 8.0892,-7.56647 13.8837,-9.45754 27.195,-8.87535 9.5387,0.41719 11.4193,0.863 15.7614,3.73646 24.1659,15.99224 21.8443,42.55367 -4.6202,52.85904 -6.2112,2.41867 -18.5158,3.29608 -24.6532,1.75795 z"
       id="path4128" />
    <path
       style="fill:#ffffff;fill-opacity:1;stroke:#ffffff;stroke-width:0.43437"
       d="m 1538.801,1115.9544 c -33.2982,-5.8869 -55.8888,-21.5911 -67.8009,-47.1329 -15.5321,-33.3036 -11.0049,-81.52951 10.48,-111.63792 9.8958,-13.86764 24.8569,-24.11207 43.6327,-29.87686 9.9464,-3.05386 11.2511,-3.16853 36.7458,-3.22977 26.2002,-0.0629 26.5237,-0.0338 36.697,3.30028 24.1269,7.90717 40.1358,24.8128 44.9324,47.4491 3.1682,14.95133 0.9344,47.51427 -3.5702,52.04687 -1.4667,1.4757 -9.9697,1.7797 -59.0672,2.1114 l -57.3539,0.3874 -0.6925,3.1529 c -1.5754,7.1725 4.1743,21.9152 11.082,28.4152 14.3616,13.514 43.3234,15.2545 83.0585,4.9915 9.5215,-2.4593 17.6838,-4.0995 18.1384,-3.6449 0.4545,0.4545 1.9059,9.5622 3.2252,20.2391 1.9524,15.8005 2.12,19.5895 0.9004,20.3633 -2.8916,1.8346 -23.868,7.4947 -42.2974,11.4132 -14.5582,3.0954 -45.044,3.9621 -58.1103,1.6521 z m 47.1438,-121.22055 c 1.6337,-1.35591 1.8663,-2.73885 1.2548,-7.46065 -1.2436,-9.60284 -3.11,-14.29632 -7.8065,-19.63187 -3.0721,-3.49005 -5.9765,-5.48959 -9.2792,-6.38833 -6.3722,-1.734 -21.3847,-0.54278 -27.5543,2.18639 -11.0678,4.89586 -21.0993,23.41345 -16.9171,31.22795 l 1.38,2.57858 28.4584,-0.42382 c 22.6861,-0.33785 28.8651,-0.76141 30.4639,-2.08825 z"
       id="path4129" />
    <path
       style="fill:#ffffff;fill-opacity:1;stroke:#ffffff;stroke-width:0.43437"
       d="m 1390.5069,1117.555 c -30.4908,-2.8891 -52.7023,-21.2921 -56.7381,-47.0095 -0.6448,-4.1087 -1.1762,-26.7168 -1.181,-50.2402 -0.01,-41.10438 -0.095,-42.81621 -2.2317,-43.95959 -1.2226,-0.65434 -7.8905,-1.1897 -14.8175,-1.1897 -10.4244,0 -12.7148,-0.31325 -13.2922,-1.81791 -0.3837,-0.99984 -0.6976,-11.90582 -0.6976,-24.2355 v -22.41761 l 13.575,0.81022 13.5749,0.81022 4.5555,-5.17526 c 2.5055,-2.84639 10.7001,-13.74532 18.2102,-24.21983 10.2548,-14.30267 14.511,-19.34308 17.0938,-20.24345 1.8915,-0.65938 8.2751,-1.19888 14.1857,-1.19888 h 10.7466 l 0.018,23.27273 c 0.01,12.8 0.4186,23.90392 0.9088,24.67538 0.6317,0.99425 8.323,1.63256 26.4156,2.19226 l 25.5244,0.78961 v 23.37901 23.37901 h -26.4332 -26.4332 l 0.023,34.19079 c 0.027,40.0965 0.7784,47.443 5.3388,52.203 5.0817,5.3042 13.4518,7.1491 28.7217,6.3308 l 12.8492,-0.6886 0.9425,8.8597 c 0.5185,4.8728 0.9485,14.5389 0.9556,21.4802 l 0.013,12.6207 -3.2661,1.5712 c -4.5328,2.1807 -22.6911,5.6408 -32.3613,6.1665 -4.4247,0.2406 -11.7148,0.09 -16.2002,-0.3353 z"
       id="path4130" />
    <path
       style="fill:#ffffff;fill-opacity:1;stroke:#ffffff;stroke-width:0.43437"
       d="m 1688.7452,1114.5612 -2.981,-0.4615 -0.8166,-72.6323 c -0.4491,-39.9478 -0.4511,-82.07077 0,-93.60657 l 0.812,-20.97419 h 21.6704 21.6705 l 1.9412,4.8844 c 1.0676,2.68642 4.0372,9.02178 6.599,14.07857 3.8688,7.63675 5.172,9.25372 7.6935,9.54578 2.6336,0.30504 3.959,-0.92711 10.0037,-9.30033 13.937,-19.30577 18.7003,-21.74297 41.5509,-21.26015 l 15.5152,0.32783 -0.3145,13.79124 c -0.304,13.33176 -2.9704,40.98751 -4.2811,44.40325 -0.5148,1.34134 -2.7319,1.58267 -11.2395,1.22341 -18.2411,-0.77031 -34.0576,4.64298 -44.4222,15.20377 -4.5171,4.60249 -4.9302,5.55609 -5.8204,13.43559 -0.527,4.6648 -1.2582,29.0839 -1.6248,54.2646 -0.3666,25.1807 -0.9585,46.2554 -1.3153,46.8328 -0.6206,1.004 -48.3493,1.217 -54.6366,0.2438 z"
       id="path4131" />
    <path
       style="fill:#ffffff;fill-opacity:1;stroke:#ffffff;stroke-width:0.43437"
       d="m 1914.6846,1116.582 c -12.1146,-1.404 -21.7571,-4.3307 -34.4781,-10.4649 -23.6963,-11.4266 -39.2045,-28.9298 -48.3812,-54.605 -9.3376,-26.1256 -5.9053,-55.07314 9.6978,-81.78937 12.0074,-20.5595 34.9065,-37.40957 58.7956,-43.26415 31.4276,-7.70205 71.7044,-2.55475 94.3036,12.05185 18.7098,12.0927 33.1251,31.22703 40.1624,53.31 5.1266,16.08707 4.3362,48.00087 -1.5934,64.33677 -5.0278,13.8512 -21.2075,33.7414 -34.6042,42.5396 -21.8197,14.33 -54.4888,21.294 -83.9025,17.8852 z m 33.9035,-51.6884 c 8.0119,-3.075 16.284,-9.1393 20.607,-15.1071 3.9331,-5.4295 8.1248,-21.5604 8.1248,-31.2667 0,-13.4984 -8.8528,-31.64405 -18.963,-38.86862 -6.7013,-4.78866 -17.5128,-7.21606 -28.7318,-6.45092 -12.5695,0.85724 -19.4744,3.50707 -25.9109,9.94356 -11.1595,11.1595 -15.4509,23.27528 -14.6534,41.37028 0.4232,9.6025 0.9543,11.8972 4.2369,18.3069 6.5206,12.7322 16.5061,21.3912 28.1477,24.4086 5.9182,1.534 20.2803,0.2979 27.1427,-2.336 z"
       id="path4132" />
  </g>
</svg>
