<?xml version="1.0" encoding="UTF-8" standalone="no"?>
<!-- Created with Inkscape (http://www.inkscape.org/) -->

<svg
   width="184.7355mm"
   height="88.5298mm"
   viewBox="0 0 184.7355 88.5298"
   version="1.1"
   id="svg1"
   xml:space="preserve"
   inkscape:version="1.3.2 (091e20e, 2023-11-25, custom)"
   sodipodi:docname="sls-logo-v2.svg"
   inkscape:export-filename="sls-logo-v2.svg"
   inkscape:export-xdpi="96"
   inkscape:export-ydpi="96"
   xmlns:inkscape="http://www.inkscape.org/namespaces/inkscape"
   xmlns:sodipodi="http://sodipodi.sourceforge.net/DTD/sodipodi-0.dtd"
   xmlns="http://www.w3.org/2000/svg"
   xmlns:svg="http://www.w3.org/2000/svg"><sodipodi:namedview
     id="namedview1"
     pagecolor="#505050"
     bordercolor="#eeeeee"
     borderopacity="1"
     inkscape:showpageshadow="0"
     inkscape:pageopacity="0"
     inkscape:pagecheckerboard="0"
     inkscape:deskcolor="#505050"
     inkscape:document-units="mm"
     inkscape:zoom="0.72426347"
     inkscape:cx="174.6602"
     inkscape:cy="430.09211"
     inkscape:window-width="1920"
     inkscape:window-height="1009"
     inkscape:window-x="-8"
     inkscape:window-y="-8"
     inkscape:window-maximized="1"
     inkscape:current-layer="layer1" /><defs
     id="defs1" /><g
     inkscape:groupmode="layer"
     id="layer2"
     inkscape:label="skoczek-draw"
     inkscape:export-filename="sls-logo-v2.svg"
     inkscape:export-xdpi="96"
     inkscape:export-ydpi="96"
     transform="translate(-24.227917,-36.095736)"><g
       id="g3"
       inkscape:export-filename="sls-logo-v2-indigo.svg"
       inkscape:export-xdpi="96"
       inkscape:export-ydpi="96"><path
         id="path5-4-9"
         style="font-variation-settings:normal;display:inline;opacity:1;fill:#281044;fill-opacity:1;stroke:#ffffff;stroke-width:2;stroke-linecap:butt;stroke-linejoin:miter;stroke-miterlimit:4;stroke-dasharray:none;stroke-dashoffset:0;stroke-opacity:1;stop-color:#000000;stop-opacity:1"
         d="m 56.74589,37.101095 c -2.546215,0.06816 -4.959387,0.759643 -4.959387,0.759643 0,0 -2.164221,0.627474 -4.173389,1.457792 -1.030768,0.425979 -2.098261,1.034595 -2.904732,1.53169 -2.476034,1.091109 -4.77087,2.380036 -6.872965,3.880383 -6.606537,4.65898 -9.90999,10.511876 -9.90999,17.558101 0,4.8515 1.348405,9.279532 4.045748,13.283944 0.390919,0.57756 2.893154,3.484376 7.506002,8.720915 2.658251,3.080317 3.987353,5.871924 3.987353,8.374682 0,3.927405 -2.032775,6.892341 -6.098335,8.894545 -1.837321,0.88559 -5.590415,1.9638 -11.258745,3.23443 -0.586378,0.11551 -0.879533,0.38468 -0.879533,0.80822 0,1.19363 1.544014,4.50522 4.632276,9.93428 3.088263,5.39056 5.082433,8.08581 5.981547,8.08581 0.195459,0 0.449491,-0.0194 0.762227,-0.0579 8.404766,-1.34763 15.539038,-4.4859 21.402828,-9.41441 6.68472,-5.58308 10.026778,-12.28273 10.026778,-20.099033 0,-4.196932 -1.387526,-8.412887 -4.163053,-12.648323 -0.234552,-0.308032 -2.834331,-3.542649 -7.799007,-9.703284 -2.814619,-3.426852 -4.221965,-6.314295 -4.221965,-8.663037 0,-2.61827 1.270679,-4.658956 3.811654,-6.122107 0.21781,-0.131104 0.441841,-0.251393 0.667143,-0.36897 1.494061,1.390036 1.727363,1.611291 3.596163,3.349667 l 4.090706,8.317321 c 0,0 0.35015,1.868345 1.635559,2.088245 1.285409,0.2199 1.193209,0.28422 1.193209,0.28422 0,0 0.545428,-0.127072 0.554488,-0.384472 0.009,-0.25736 0.389124,-3.415812 0.389124,-3.415812 l 0.222725,0.376204 0.438216,3.030823 c 0,0 0.0091,0.533354 0.476457,0.548804 0.467809,0.0154 2.33164,0.374654 2.33164,0.374654 0,0 0.97298,0.104929 1.776636,-0.373621 0.803649,-0.478559 1.266073,-1.101225 1.266073,-1.101225 0,0 0.755502,-1.096661 0.876432,-2.078426 0.12093,-0.981802 0.01137,-1.739945 0.01137,-1.739945 l -0.06046,-4.950603 0.03876,-2.297017 c 0,0 -0.08797,-0.64529 0.267684,-1.096574 0.355649,-0.451255 1.516703,-1.369942 1.516703,-1.369942 0,0 0.560766,-1.053954 0.385506,-1.973523 -0.17524,-0.919566 -0.730188,-3.951697 -0.730188,-3.951697 0,0 -0.202084,-0.420758 0.294556,-0.86403 0.496599,-0.44328 4.276741,-2.471167 4.276741,-2.471167 0,0 0.508498,-0.317646 0.236678,-0.70745 -0.271859,-0.389812 -0.922424,-0.480591 -0.922424,-0.480591 l -4.753198,-1.221114 c 0,0 -0.849023,0.02798 -1.614372,-0.999939 -0.765349,-1.027918 -3.391524,-2.549198 -3.391524,-2.549198 0,0 -1.442094,-0.922313 -3.748092,-1.923914 -2.305987,-1.001613 -3.712435,-1.215946 -3.712435,-1.215946 0,0 -1.97664,-0.359958 -4.4111,-0.556556 -0.05066,-0.0074 -0.09732,-0.03101 -0.149862,-0.03101 -0.03259,0 -0.102129,0.0075 -0.138492,0.0083 -0.249325,-0.01836 -0.476707,-0.04509 -0.733289,-0.05891 -0.362535,-0.01952 -0.728695,-0.02266 -1.09244,-0.01292 z" /><path
         style="font-size:119.184px;font-family:'Berlin Sans FB Demi';-inkscape-font-specification:'Berlin Sans FB Demi';letter-spacing:5.29167px;fill:#281044;fill-opacity:1;stroke:#ffffff;stroke-width:2;stroke-opacity:1"
         d="m 135.95377,122.52896 q -5.0048,0 -13.03575,-0.23278 -10.47516,-0.23278 -13.03575,-0.29098 l -17.400403,-0.23278 q -2.618789,0.0582 -7.507195,-0.23278 -1.687664,-0.29097 -1.687664,-1.80405 0,-6.34329 0.174586,-18.97167 0.232781,-12.686582 0.232781,-19.029871 0,-6.750656 -0.407367,-20.193773 -0.407367,-13.501312 -0.407367,-20.251968 0,-1.280297 1.745859,-1.280297 1.74586,0 5.179383,0.174586 3.491719,0.174586 5.179383,0.174586 1.920445,0 5.703144,-0.174586 3.78269,-0.232781 5.70314,-0.232781 0.87293,0 0.81473,1.10571 l -0.0582,0.756539 q -0.69835,10.940719 -1.57128,32.880352 l -0.0582,15.363562 q 0,7.449 0.0582,10.882521 0.0582,0.69835 0.11639,1.39669 0.0582,0.69834 0.87293,0.87293 0.0582,0 1.51308,0 5.23758,0 15.65454,-0.52376 10.47516,-0.58195 15.71273,-0.58195 1.57128,0 1.57128,1.33849 0,9.9514 -1.45489,17.16762 -0.29097,1.51308 -1.2221,1.80405 -0.29097,0.11639 -2.386,0.11639 z"
         id="path2"
         transform="scale(1.0076062,0.99245121)" /><path
         id="path5"
         style="font-variation-settings:normal;display:inline;opacity:1;fill:#281044;fill-opacity:1;stroke:#ffffff;stroke-width:2;stroke-linecap:butt;stroke-linejoin:miter;stroke-miterlimit:4;stroke-dasharray:none;stroke-dashoffset:0;stroke-opacity:1;stop-color:#000000;stop-opacity:1"
         d="m 183.21724,37.101095 c -2.54623,0.06816 -4.95939,0.759643 -4.95939,0.759643 0,0 -2.16421,0.627474 -4.17339,1.457792 -0.64771,0.267675 -1.28875,0.60618 -1.89497,0.946713 -3.02321,1.204512 -5.79497,2.683869 -8.29097,4.46536 -6.60653,4.65898 -9.90999,10.511876 -9.90999,17.558101 0,4.8515 1.34893,9.279532 4.04627,13.283944 0.39092,0.57756 2.89264,3.484376 7.50548,8.720915 2.65825,3.080317 3.98736,5.871924 3.98736,8.374682 0,3.927405 -2.03278,6.892341 -6.09834,8.894545 -1.83732,0.88559 -5.5899,1.9638 -11.25823,3.23443 -0.58638,0.11551 -0.87953,0.38468 -0.87953,0.80822 0,1.19363 1.54401,4.50522 4.63228,9.93428 3.08826,5.39056 5.08191,8.08581 5.98103,8.08581 0.19546,0 0.44949,-0.0194 0.76222,-0.0579 8.40477,-1.34763 15.53904,-4.4859 21.40283,-9.41441 6.68472,-5.58308 10.0273,-12.28273 10.0273,-20.099033 0,-4.196932 -1.38804,-8.412887 -4.16357,-12.648323 -0.23455,-0.308032 -2.83382,-3.542649 -7.79849,-9.703284 -2.81463,-3.426852 -4.22197,-6.314295 -4.22197,-8.663037 0,-2.61827 1.27016,-4.658956 3.81114,-6.122107 0.30228,-0.181949 0.61398,-0.347433 0.93069,-0.503328 1.53926,1.432106 1.797,1.675841 3.74086,3.484025 l 4.0907,8.317321 c 0,0 0.35067,1.868345 1.63608,2.088245 1.28542,0.2199 1.19269,0.28422 1.19269,0.28422 0,0 0.54543,-0.127072 0.55449,-0.384472 0.009,-0.25736 0.38912,-3.415812 0.38912,-3.415812 l 0.22273,0.376204 0.43822,3.030823 c 0,0 0.009,0.533354 0.47645,0.548804 0.46782,0.0154 2.33164,0.374654 2.33164,0.374654 0,0 0.97298,0.104929 1.77664,-0.373621 0.80366,-0.478559 1.26607,-1.101225 1.26607,-1.101225 0,0 0.75549,-1.096661 0.87643,-2.078426 0.12093,-0.981802 0.0114,-1.739945 0.0114,-1.739945 l -0.0599,-4.950603 0.0382,-2.297017 c 0,0 -0.088,-0.64529 0.26768,-1.096574 0.35565,-0.451255 1.51722,-1.369942 1.51722,-1.369942 0,0 0.56025,-1.053954 0.38499,-1.973523 -0.17525,-0.919566 -0.72967,-3.951697 -0.72967,-3.951697 0,0 -0.2026,-0.420758 0.29404,-0.86403 0.49661,-0.44328 4.27674,-2.471167 4.27674,-2.471167 0,0 0.50902,-0.317646 0.2372,-0.70745 -0.27186,-0.389812 -0.92295,-0.480591 -0.92295,-0.480591 l -4.75319,-1.221114 c 0,0 -0.84903,0.02798 -1.61438,-0.999939 -0.76535,-1.027918 -3.391,-2.549198 -3.391,-2.549198 0,0 -1.4426,-0.922313 -3.74861,-1.923914 -2.306,-1.001613 -3.71244,-1.215946 -3.71244,-1.215946 0,0 -2.53246,-0.482006 -5.43274,-0.638204 -0.36254,-0.01952 -0.72869,-0.02266 -1.09244,-0.01292 z" /></g></g></svg>
