<?xml version="1.0" encoding="UTF-8" standalone="no"?>
<!-- Created with Inkscape (http://www.inkscape.org/) -->

<svg
   width="182.73665mm"
   height="86.529541mm"
   viewBox="0 0 182.73665 86.529541"
   version="1.1"
   id="svg1"
   xml:space="preserve"
   inkscape:version="1.3.2 (091e20e, 2023-11-25, custom)"
   sodipodi:docname="sls-logo-v2.svg"
   inkscape:export-filename="..\..\Project\www\SLS\sls-app\public\logo\sls-logo-v2.svg"
   inkscape:export-xdpi="96"
   inkscape:export-ydpi="96"
   xmlns:inkscape="http://www.inkscape.org/namespaces/inkscape"
   xmlns:sodipodi="http://sodipodi.sourceforge.net/DTD/sodipodi-0.dtd"
   xmlns:xlink="http://www.w3.org/1999/xlink"
   xmlns="http://www.w3.org/2000/svg"
   xmlns:svg="http://www.w3.org/2000/svg"><sodipodi:namedview
     id="namedview1"
     pagecolor="#505050"
     bordercolor="#eeeeee"
     borderopacity="1"
     inkscape:showpageshadow="0"
     inkscape:pageopacity="0"
     inkscape:pagecheckerboard="0"
     inkscape:deskcolor="#505050"
     inkscape:document-units="mm"
     inkscape:zoom="0.72426347"
     inkscape:cx="173.96984"
     inkscape:cy="430.09211"
     inkscape:window-width="1920"
     inkscape:window-height="1009"
     inkscape:window-x="-8"
     inkscape:window-y="-8"
     inkscape:window-maximized="1"
     inkscape:current-layer="layer1" /><defs
     id="defs1"><linearGradient
       id="linearGradient4"
       inkscape:collect="always"><stop
         style="stop-color:#000000;stop-opacity:1;"
         offset="0"
         id="stop4" /><stop
         style="stop-color:#ffffff;stop-opacity:1;"
         offset="1"
         id="stop5" /></linearGradient><linearGradient
       inkscape:collect="always"
       xlink:href="#linearGradient4"
       id="linearGradient5"
       x1="39.845947"
       y1="98.328758"
       x2="41.462067"
       y2="98.318954"
       gradientUnits="userSpaceOnUse"
       gradientTransform="matrix(37.538483,0,0,37.538481,-1417.4217,-3608.4835)" /><linearGradient
       inkscape:collect="always"
       xlink:href="#linearGradient4"
       id="linearGradient2"
       gradientUnits="userSpaceOnUse"
       gradientTransform="matrix(37.538483,0,0,37.538481,-1417.4217,-3608.4835)"
       x1="39.845947"
       y1="98.328758"
       x2="41.462067"
       y2="98.318954" /><linearGradient
       inkscape:collect="always"
       xlink:href="#linearGradient4"
       id="linearGradient3"
       gradientUnits="userSpaceOnUse"
       gradientTransform="matrix(37.538483,0,0,37.538481,-1417.4217,-3608.4835)"
       x1="39.845947"
       y1="98.328758"
       x2="41.462067"
       y2="98.318954" /></defs><g
     inkscape:groupmode="layer"
     id="layer2"
     inkscape:label="skoczek-draw"
     transform="translate(-25.228045,-37.095942)"><g
       id="g3"><path
         style="font-variation-settings:normal;display:inline;opacity:1;vector-effect:none;fill:#000000;fill-opacity:1;stroke-width:0.264583;stroke-linecap:butt;stroke-linejoin:miter;stroke-miterlimit:4;stroke-dasharray:none;stroke-dashoffset:0;stroke-opacity:1;-inkscape-stroke:none;stop-color:#000000;stop-opacity:1"
         d="m 59.92437,59.898258 4.09102,8.317408 c 0,0 0.35022,1.868237 1.63563,2.088137 1.28541,0.2199 1.19304,0.28399 1.19304,0.28399 0,0 0.5452,-0.12715 0.55426,-0.38455 0.009,-0.25736 0.38926,-3.415364 0.38926,-3.415364 l 0.22273,0.37593 0.43816,3.031054 c 0,0 0.009,0.53295 0.4764,0.5484 0.46781,0.0154 2.33184,0.37493 2.33184,0.37493 0,0 0.97299,0.10511 1.776647,-0.37344 0.80365,-0.47856 1.26604,-1.10127 1.26604,-1.10127 0,0 0.75549,-1.096989 0.87642,-2.078755 0.12093,-0.981803 0.0113,-1.739569 0.0113,-1.739569 l -0.0603,-4.950897 0.0387,-2.296827 c 0,0 -0.0882,-0.645623 0.26745,-1.096907 0.35565,-0.451256 1.51702,-1.369896 1.51702,-1.369896 0,0 0.56037,-1.053942 0.38511,-1.973512 -0.17524,-0.919567 -0.72983,-3.951683 -0.72983,-3.951683 0,0 -0.20217,-0.420522 0.29447,-0.863794 0.4966,-0.443281 4.27647,-2.471041 4.27647,-2.471041 0,0 0.50889,-0.317788 0.23707,-0.707592 -0.27186,-0.389812 -0.92257,-0.480801 -0.92257,-0.480801 l -4.75343,-1.220867 c 0,0 -0.84882,0.02811 -1.61417,-0.999809 -0.76535,-1.027919 -3.391257,-2.549634 -3.391257,-2.549634 0,0 -1.44247,-0.922122 -3.74847,-1.923724 -2.30599,-1.001614 -3.71236,-1.215891 -3.71236,-1.215891 0,0 -2.53237,-0.481984 -5.43264,-0.638182 -2.90028,-0.1562 -6.05199,0.746584 -6.05199,0.746584 0,0 -2.16406,0.627409 -4.17323,1.457728 -2.00918,0.830321 -4.20171,2.375445 -4.20171,2.375445 l -0.97426,0.772549 c 7.15332,7.827452 -11.67008,-9.690514 17.48718,17.43185 z"
         id="path5-4-9"
         sodipodi:nodetypes="ccscccccscscscccscscscsccscscscsccc" /><path
         style="font-variation-settings:normal;display:inline;opacity:1;vector-effect:none;fill:#ffffff;fill-opacity:1;stroke-width:0.264583;stroke-linecap:butt;stroke-linejoin:miter;stroke-miterlimit:4;stroke-dasharray:none;stroke-dashoffset:0;stroke-opacity:1;-inkscape-stroke:none;stop-color:#000000;stop-opacity:1"
         d="m 186.39577,59.898258 4.09104,8.317408 c 0,0 0.35023,1.868237 1.63564,2.088137 1.28542,0.2199 1.19305,0.28399 1.19305,0.28399 0,0 0.5452,-0.12715 0.55426,-0.38455 0.009,-0.25736 0.38927,-3.415364 0.38927,-3.415364 l 0.22273,0.37593 0.43816,3.031054 c 0,0 0.009,0.53295 0.4764,0.5484 0.46782,0.0154 2.33185,0.37493 2.33185,0.37493 0,0 0.973,0.10511 1.77666,-0.37344 0.80366,-0.47856 1.26605,-1.10127 1.26605,-1.10127 0,0 0.75549,-1.096989 0.87643,-2.078755 0.12093,-0.981803 0.0113,-1.739569 0.0113,-1.739569 l -0.0603,-4.950897 0.0387,-2.296827 c 0,0 -0.0882,-0.645623 0.26745,-1.096907 0.35565,-0.451256 1.51702,-1.369896 1.51702,-1.369896 0,0 0.56038,-1.053942 0.38512,-1.973512 -0.17525,-0.919567 -0.72984,-3.951683 -0.72984,-3.951683 0,0 -0.20217,-0.420522 0.29447,-0.863794 0.49661,-0.443281 4.2765,-2.471041 4.2765,-2.471041 0,0 0.50889,-0.317788 0.23707,-0.707592 -0.27186,-0.389812 -0.92257,-0.480801 -0.92257,-0.480801 l -4.75346,-1.220867 c 0,0 -0.84883,0.02811 -1.61418,-0.999809 -0.76536,-1.027919 -3.39128,-2.549634 -3.39128,-2.549634 0,0 -1.44248,-0.922122 -3.74849,-1.923724 -2.306,-1.001614 -3.71238,-1.215891 -3.71238,-1.215891 0,0 -2.53239,-0.481984 -5.43267,-0.638182 -2.9003,-0.1562 -6.05203,0.746584 -6.05203,0.746584 0,0 -2.16407,0.627409 -4.17325,1.457728 -2.00919,0.830321 -4.20173,2.375445 -4.20173,2.375445 l -0.97427,0.772549 c 7.15336,7.827452 -11.67014,-9.690514 17.48728,17.43185 z"
         id="path5"
         sodipodi:nodetypes="ccscccccscscscccscscscsccscscscsccc" /><path
         d="m 67.52018,94.769799 q 0,11.813651 -9.951398,20.251971 -8.729297,7.449 -21.241289,9.48583 -0.465563,0.0582 -0.756539,0.0582 -1.338492,0 -5.935922,-8.14735 -4.597429,-8.20553 -4.597429,-10.00959 0,-0.64015 0.872929,-0.81473 8.43832,-1.92045 11.1735,-3.25894 6.052312,-3.026157 6.052312,-8.962078 0,-3.782696 -3.957281,-8.438321 -6.867047,-7.914562 -7.449,-8.787492 -4.015476,-6.052312 -4.015476,-13.384921 0,-10.649742 9.835008,-17.691375 8.030953,-5.819531 19.72821,-7.565391 0.640149,-0.05819 0.98932,-0.05819 0.87293,0 1.396688,1.396688 1.513078,4.248257 7.041633,15.363562 0.174586,0.349172 0.174586,0.581953 0,0.98932 -1.047516,0.98932 -0.465563,0 -1.571273,-0.174586 -1.105711,-0.174586 -1.687665,-0.174586 -4.190062,0 -7.332609,1.920446 -3.782695,2.211422 -3.782695,6.168703 0,3.549914 4.190062,8.729296 7.390805,9.31125 7.739977,9.776813 4.131867,6.401484 4.131867,12.744773 z"
         id="path1"
         style="font-size:119.184px;font-family:'Berlin Sans FB Demi';-inkscape-font-specification:'Berlin Sans FB Demi';letter-spacing:5.29167px;fill:url(#linearGradient2);stroke-width:2"
         transform="scale(1.0076062,0.99245121)" /><path
         style="font-size:119.184px;font-family:'Berlin Sans FB Demi';-inkscape-font-specification:'Berlin Sans FB Demi';letter-spacing:5.29167px;fill:url(#linearGradient3);stroke:#000000;stroke-width:2"
         d="m 135.95377,122.52896 q -5.0048,0 -13.03575,-0.23278 -10.47516,-0.23278 -13.03575,-0.29098 l -17.400403,-0.23278 q -2.618789,0.0582 -7.507195,-0.23278 -1.687664,-0.29097 -1.687664,-1.80405 0,-6.34329 0.174586,-18.97167 0.232781,-12.686582 0.232781,-19.029871 0,-6.750656 -0.407367,-20.193773 -0.407367,-13.501312 -0.407367,-20.251968 0,-1.280297 1.745859,-1.280297 1.74586,0 5.179383,0.174586 3.491719,0.174586 5.179383,0.174586 1.920445,0 5.703144,-0.174586 3.78269,-0.232781 5.70314,-0.232781 0.87293,0 0.81473,1.10571 l -0.0582,0.756539 q -0.69835,10.940719 -1.57128,32.880352 l -0.0582,15.363562 q 0,7.449 0.0582,10.882521 0.0582,0.69835 0.11639,1.39669 0.0582,0.69834 0.87293,0.87293 0.0582,0 1.51308,0 5.23758,0 15.65454,-0.52376 10.47516,-0.58195 15.71273,-0.58195 1.57128,0 1.57128,1.33849 0,9.9514 -1.45489,17.16762 -0.29097,1.51308 -1.2221,1.80405 -0.29097,0.11639 -2.386,0.11639 z"
         id="path2"
         transform="scale(1.0076062,0.99245121)" /><path
         d="m 192.63189,94.769799 q 0,11.813651 -9.9514,20.251971 -8.7293,7.449 -21.24129,9.48583 -0.46556,0.0582 -0.75654,0.0582 -1.33849,0 -5.93592,-8.14735 -4.59743,-8.20553 -4.59743,-10.00959 0,-0.64015 0.87293,-0.81473 8.43832,-1.92045 11.1735,-3.25894 6.05231,-3.026157 6.05231,-8.962078 0,-3.782696 -3.95728,-8.438321 -6.86704,-7.914562 -7.449,-8.787492 -4.01547,-6.052312 -4.01547,-13.384921 0,-10.649742 9.835,-17.691375 8.03096,-5.819531 19.72821,-7.565391 0.64015,-0.05819 0.98933,-0.05819 0.87292,0 1.39668,1.396688 1.51308,4.248257 7.04164,15.363562 0.17458,0.349172 0.17458,0.581953 0,0.98932 -1.04751,0.98932 -0.46557,0 -1.57128,-0.174586 -1.10571,-0.174586 -1.68766,-0.174586 -4.19006,0 -7.33261,1.920446 -3.7827,2.211422 -3.7827,6.168703 0,3.549914 4.19007,8.729296 7.3908,9.31125 7.73997,9.776813 4.13187,6.401484 4.13187,12.744773 z"
         id="path3"
         style="font-size:119.184px;font-family:'Berlin Sans FB Demi';-inkscape-font-specification:'Berlin Sans FB Demi';letter-spacing:5.29167px;fill:url(#linearGradient5);stroke-width:2"
         transform="scale(1.0076062,0.99245121)" /></g></g></svg>
