<?xml version="1.0" encoding="UTF-8" standalone="no"?>
<!-- Created with Inkscape (http://www.inkscape.org/) -->

<svg
   version="1.1"
   id="svg1"
   width="2039.9478"
   height="411.31677"
   viewBox="0 0 2039.9478 411.31677"
   sodipodi:docname="trzy_fale_2048.png"
   xmlns:inkscape="http://www.inkscape.org/namespaces/inkscape"
   xmlns:sodipodi="http://sodipodi.sourceforge.net/DTD/sodipodi-0.dtd"
   xmlns="http://www.w3.org/2000/svg"
   xmlns:svg="http://www.w3.org/2000/svg">
  <defs
     id="defs1" />
  <sodipodi:namedview
     id="namedview1"
     pagecolor="#ffffff"
     bordercolor="#000000"
     borderopacity="0.25"
     inkscape:showpageshadow="2"
     inkscape:pageopacity="0.0"
     inkscape:pagecheckerboard="0"
     inkscape:deskcolor="#d1d1d1" />
  <g
     inkscape:groupmode="layer"
     inkscape:label="Image"
     id="g1"
     transform="translate(10.265649,-1208.0114)">
    <path
       style="fill:#2e3882;stroke:none"
       d="m 177.99749,1208.4998 c -32.20329,4.2279 -61.80713,10.1495 -90.000004,27.6396 -9.08803,5.638 -22.87815,11.8825 -23.90586,23.9359 -1.28469,15.0675 11.35836,22.854 19.10648,34 6.02575,8.6682 7.19499,20.1363 3.69522,30 -1.48071,4.1733 -4.01463,7.7596 -6.98921,11 -16.94651,18.4612 -36.620571,33.07 -56.906628,47.5725 -10.243195,7.3229 -24.9215677,14.536 -30.4459877,26.4275 -4.5283553,9.7473 -2.453833,21.7254 -1.554012,32 0.819392,9.3562 1.171199,32.449 10.108796,37.8959 10.1431127,6.1816 28.5216317,-17.5509 35.8912037,-23.4468 19.99057,-15.9929 41.977948,-29.3026 61.999998,-45.2562 11.093254,-8.8391 20.024024,-19.9961 31.000004,-28.8527 8.05315,-6.4981 19.93735,-6.8376 27.99924,-0.1156 18.27655,15.2392 20.34421,43.5144 5.53317,61.7754 -24.07834,29.687 -63.14332,45.1594 -91.532414,70.1697 -11.835165,10.4266 -34.270067,26.2901 -24.999998,44.8303 6.652985,13.3059 27.356388,30.0868 42.999998,26.4707 12.492894,-2.8878 23.335634,-18.0976 33.000004,-26.0078 22.80886,-18.6685 48.69548,-33.2518 71,-52.6218 9.22441,-8.0108 19.48836,-24.0889 32,-26.5008 25.67926,-4.9504 40.22724,27.4927 34.51081,48.6597 -4.84897,17.9548 -22.35807,29.8396 -36.51081,40.3704 -16.34572,12.1626 -34.01887,22.6806 -50,35.2986 -21.62538,17.0744 14.19953,15.9812 25,15.2415 30.16886,-2.066 60.22943,-11.9663 86,-27.7215 9.68604,-5.9217 23.48014,-12.2261 23.95603,-25.189 0.88238,-24.035 -32.42405,-33.6321 -23.73612,-61 1.27591,-4.0193 3.43192,-7.7524 6.1088,-11 16.60663,-20.1472 38.74536,-34.6568 59.67129,-49.8479 9.88361,-7.175 23.94217,-13.8472 29.62192,-25.1521 5.66602,-11.2775 2.81332,-25.0589 1.10724,-37 -1.15949,-8.1152 -1.05472,-26.8512 -8.00769,-32.2577 -10.31204,-8.0183 -30.20676,17.1187 -37.72147,22.909 -20.54226,15.8281 -42.63177,29.4974 -63,45.5594 -10.63278,8.3848 -19.16061,19.8047 -30.00386,27.6188 -9.51672,6.858 -21.01366,6.485 -29.90587,-1.297 -17.58117,-15.3865 -15.58378,-42.1697 -2.80092,-59.5318 6.05431,-8.2231 14.88855,-14.0167 22.71065,-20.425 22.18826,-18.1778 47.42002,-32.3627 69,-51.291 12.33972,-10.8235 32.41654,-25.7014 23.67285,-44.2847 -5.83508,-12.4016 -25.99102,-29.7898 -40.67285,-26.3162 -13.36389,3.1616 -24.54492,18.5163 -35,26.8671 -23.62835,18.8728 -50.08356,33.9024 -73,53.7316 -9.81485,8.4927 -19.43088,23.0752 -33,25.3881 -25.96779,4.4262 -36.91685,-33.959 -29.53549,-52.6706 4.37683,-11.0951 14.58398,-19.6358 23.53549,-27.0794 18.11995,-15.0675 37.94052,-27.8639 57,-41.6659 2.04804,-1.4831 4.07605,-3.0335 5.98458,-4.6936 17.66445,-15.3661 -13.50606,-15.381 -22.98458,-14.1366 m 346,48.0038 c -16.21588,2.3491 -25.4512,20.896 -16.51697,35.5564 11.3299,18.5915 43.732,-2.9861 51.86805,22.0153 2.74011,8.4201 1.64892,18.288 1.64892,27 0,15.9162 -0.13159,31.7781 -0.59643,47.6752 -1.25837,43.0345 -0.40357,86.2496 -0.40357,129.3248 v 41 c 0.0106,6.5659 0.29407,14.7173 5.34027,19.6096 6.71509,6.51 19.00946,6.1574 27.65973,5.2168 25.84052,-2.8095 17,-44.3259 17,-62.8264 v -132 c 0,-21.8178 -2.52801,-45.3725 0.28937,-67 1.42981,-10.9759 8.05359,-20.3966 19.71063,-21.8155 12.85694,-1.565 30.63837,4.2303 35.94135,-12.1845 3.14288,-9.7284 1.69061,-25.5404 -8.94214,-29.9946 -11.94068,-5.0022 -29.29804,-2.0054 -41.99921,-2.0054 -29.47137,0 -61.84961,-3.7946 -91,0.4283 m 199,0 c -5.84137,0.7673 -11.30047,0.4589 -15.89197,4.7893 -5.45422,5.1439 -5.10803,11.8798 -5.10803,18.7862 v 37 190 50 c 0,7.8301 -1.17462,15.9077 5.10492,21.7863 9.97583,9.3387 40.85834,8.7179 43.67053,-7.7863 5.51575,-32.3706 -2.88787,-67.2938 0.39508,-100 1.78266,-17.7598 17.70227,-25.3664 33.82947,-20.5602 34.99951,10.4308 24,68.9242 24,96.5602 0,9.2643 -1.36059,23.1682 4.80017,30.8118 6.25946,7.7657 20.2417,7.0937 29.19983,6.0038 17.34705,-2.1105 16.0044,-17.344 16,-30.8156 -0.0102,-31.3989 4.20923,-66.8489 -6.00384,-97 -3.74726,-11.0627 -15.81708,-20.2773 -16.60187,-32 -0.62543,-9.342 8.47687,-16.5549 12.72687,-24 5.49902,-9.633 7.66504,-21.0735 8.7091,-32 2.71924,-28.4571 4.18433,-69.4142 -16.26928,-91.9097 -20.71814,-22.7863 -58.71772,-20.0903 -86.56098,-20.0903 -10.51971,0 -21.56213,-0.9466 -32,0.4245 m 385.00001,0 c -34.67,4.9781 -8.5072,52.9006 -2.28,73.5717 9.3455,31.0223 18.6929,62.0603 28.3055,93 5.3129,17.1004 13.1165,35.2559 15.6744,53 3.1982,22.1859 1.3001,45.6179 1.3001,68 0,8.7296 -2.311,19.677 0.3295,28 4.3956,13.855 21.8181,13.3101 33.6705,11.8148 6.5855,-0.8308 12.7107,-5.2254 14.4422,-11.8148 4.2797,-16.2871 0.5578,-38.1533 0.5578,-55 0,-12.4203 -1.3155,-25.6804 0.2893,-38 2.494,-19.145 10.9698,-38.6077 16.6852,-57 8.8978,-28.6334 17.2527,-57.4355 26.3696,-86 5.1922,-16.2673 10.4392,-32.613 15.2315,-49 2.0968,-7.1699 4.9996,-14.9786 0.7862,-21.9598 -7.2371,-11.9912 -33.0717,-11.6158 -40.3671,-0.036 -8.267,13.1216 -10.6232,34.021 -14.3681,48.9961 -2.5696,10.2756 -4.2654,24.5405 -11.0201,32.9846 -8.7742,10.9685 -25.1618,9.8557 -32.6118,-1.9885 -17.2303,-27.3928 -6.1312,-95.2968 -52.9947,-88.5679 m -192.00001,1.105 c -15.90771,3.8667 -17.45776,31.2561 -4.98456,39.7639 5.4491,3.7168 12.73798,2.7029 18.98456,2.7029 12.68769,0 25.38031,-0.391 37.99998,0.8302 9.9097,0.959 19.5514,4.0829 22.4422,15.1698 1.7259,6.6192 -1.4898,13.0637 -4.0209,19 l -15,35 c -19.92909,46.5717 -38.41823,94.2639 -60.16591,140 -7.91662,16.6489 -12.25537,30.604 -12.25537,49 0,8.9863 -0.0328,17.9219 9.0008,22.8604 6.57006,3.5916 15.79272,2.1396 22.9992,2.1396 h 49.99998 c 17.4846,0 41.21573,4.2134 58.00003,-0.6382 15.2862,-4.4184 18.9469,-32.2292 4.9961,-40.2723 -5.2784,-3.0431 -12.1522,-2.0895 -17.9961,-2.0895 -19.3282,0 -59.43333,7.9126 -66.20759,-17 -1.66266,-6.1144 1.70866,-12.4844 4.05796,-18 5.1158,-12.0112 10.2586,-24.0128 15.4305,-36 20.1282,-46.6516 40.35583,-93.2669 60.29773,-140 7.2343,-16.9533 12.4214,-30.4086 12.4214,-49 0,-8.218 -0.043,-16.9911 -8.0154,-21.7716 -6.1908,-3.7123 -15.0627,-2.2284 -21.9846,-2.2284 h -49.00003 c -17.65342,0 -39.85276,-3.6348 -56.99998,0.5332 m 447.00001,-0.105 c -5.3012,0.7697 -11.2638,2.4607 -13.9723,7.6119 -2.8355,5.393 -1.0277,14.9965 -1.0277,20.9599 v 48 193 c 0,22.4472 -7.1413,54.0808 22,57.5718 4.2139,0.5047 8.8158,-0.091 13,-0.7809 17.6436,-2.9077 14,-22.6832 14,-35.7909 v -71 c 0,-10.5317 -1.1817,-22.7737 7.105,-30.8148 15.3522,-14.8973 41.7264,2.9535 56.8511,-10.4098 9.2828,-8.2017 9.0924,-29.9796 -1.9715,-36.7661 -12.9653,-7.9529 -33.5284,1.4393 -47.9846,-4.4923 -20.6467,-8.4718 -14.8473,-44.892 -13.1698,-62.517 0.5036,-5.2907 -0.5349,-10.8308 0.9591,-16 6.5677,-22.7236 44.333,-15 62.2107,-15 7.3234,0 14.2957,0.4883 19.892,-5.108 9.9912,-9.9913 7.1805,-34.8774 -7.892,-38.3627 -12.8581,-2.9733 -28.8142,-0.5293 -42,-0.5293 -22.0642,0 -46.1703,-2.7413 -68,0.4282 m 197,0.015 c -11.1948,1.9003 -13.9293,10.6787 -15.5864,20.5571 -2.6821,15.9886 -5.1466,32.0142 -7.8272,48 -10.2252,60.979 -20.1735,122.0049 -30.3394,183 -2.5009,15.0051 -4.839,30.0476 -7.6359,45 -1.2767,6.8257 -3.4423,15.6331 0.3982,21.9961 6.3895,10.5867 28.8206,11.8911 37.5116,3.4746 12.7516,-12.3486 2.2911,-36.5265 15.6643,-49.142 11.562,-10.9069 52.6915,-11.128 62.8866,1.7647 10.6143,13.4227 1.6592,44.0348 19.929,50.7731 4.4128,1.6277 9.3815,1.1335 13.9992,1.1335 4.1778,0 8.9175,0.5978 13,-0.4189 10.1894,-2.5376 12.8944,-12.4893 11.1961,-21.5811 -4.7129,-25.23 -8.2237,-50.6838 -12.443,-76 -9.1067,-54.6401 -17.7981,-109.3482 -26.8334,-164 l -6.6727,-41 c -1.1563,-6.9245 -1.8583,-14.7523 -7.352,-19.7723 -4.9433,-4.5172 -11.6417,-4.2273 -17.895,-4.2277 -13.5616,-8e-4 -28.6209,-1.8282 -42,0.4429 m 173,-0.018 c -7.4328,0.9788 -14.7257,1.5531 -17.9907,9.5763 -3.7638,9.2488 -1.0093,24.0908 -1.0093,33.9993 0,24.3576 -1,48.6102 -1,73 v 148 c 0,14.6625 -5.497,43.7058 3.804,55.895 6.6953,8.7744 20.5503,6.105 30.196,6.105 h 63 c 9.7761,0 20.4496,2.358 30,-0.6528 13.6055,-4.2891 15.6265,-30.4571 4.895,-38.6952 -5.5965,-4.2963 -13.2711,-3.652 -19.895,-3.652 -17.8368,0 -49.3933,6.7297 -59.5825,-12 -3.7152,-6.8293 -2.3821,-15.5124 -2.4182,-23 -0.061,-12.6299 -0.9993,-25.3031 -0.9993,-38 0,-49.0155 1,-98.0585 1,-147 v -39 c 0,-7.0558 0.6945,-14.1029 -4.5293,-19.6706 -5.8332,-6.2171 -17.6375,-5.9365 -25.4707,-4.905 m 172,0 c -6.4713,0.8525 -14.446,1.4471 -17.2577,8.5909 -3.3983,8.6346 -0.7423,22.753 -0.7423,31.9847 v 74 149 37 c 0,6.8563 -0.6834,14.1115 3.6489,19.9568 6.5662,8.8591 20.6288,7.0464 30.3511,7.0432 h 65 c 10.1104,0 22.2937,1.7048 32,-1.6991 14.6105,-5.1239 15.5758,-33.1736 1.9993,-39.9869 -20.2075,-10.1409 -48.022,3.8718 -68.9993,-3.4228 -23.3169,-8.108 -15,-50.7677 -15,-69.8912 0,-8.0979 -0.9801,-17.76 3.4831,-24.9607 14.6353,-23.6118 56.789,4.7774 68.5972,-20.04 1.8271,-3.8399 1.9146,-7.836 1.9197,-11.9993 0.046,-38.0869 -44.2881,-11.8474 -63.9961,-25.8002 -14.9109,-10.5565 -10.3225,-38.7056 -9.3126,-54.6243 0.3391,-5.3448 -0.5472,-11.406 0.9469,-16.5755 6.6715,-23.0829 47.2737,-15 65.3618,-15 7.3838,0 14.9396,1.1584 20.6706,-4.4684 9.1567,-8.9905 8.3087,-33.8194 -5.6706,-38.0177 -12.2922,-3.6917 -28.2636,-1.5139 -41,-1.5139 -23.4751,0 -48.7328,-2.6409 -72,0.4244 m -1135.00001,42.8757 c 4.18158,-0.6045 8.79041,-0.5187 13,-0.2098 29.62201,2.1732 26,37.4917 26,58.9096 0,18.9207 -2.21997,42.0745 -25,45.7029 -41.40405,6.5948 -33.96765,-41.2764 -32.08948,-68.7029 1.03815,-15.1593 -2.01647,-32.7934 18.08948,-35.6998 m 810.00001,78.0447 c 10.0852,-2.0188 15.7411,5.7783 17.385,14.6551 3.9895,21.5425 10.0412,46.0764 9.5996,68 -0.1981,9.8364 -6.0907,17.662 -15.9846,19.5325 -3.5939,0.6793 -7.359,0.5072 -11,0.4636 -34.5913,-0.4136 -17.8965,-49.3557 -14.4352,-69.9961 1.7821,-10.6268 0.7151,-29.9087 14.4352,-32.6551 z"
       id="path18" />
  </g>
</svg>
